<mxfile host="app.diagrams.net" modified="2024-05-27T18:49:30.730Z" agent="Mozilla/5.0 (X11; Linux x86_64) AppleWebKit/537.36 (KHTML, like Gecko) Chrome/125.0.0.0 Safari/537.36" etag="fvY2ubvIrHLF8yNdbr3D" version="24.4.8" type="github">
  <diagram name="Page-1" id="1jpkCRX16hjmeSiLWtBs">
    <mxGraphModel dx="1434" dy="754" grid="1" gridSize="10" guides="1" tooltips="1" connect="1" arrows="1" fold="1" page="1" pageScale="1" pageWidth="1100" pageHeight="850" math="0" shadow="0">
      <root>
        <mxCell id="0" />
        <mxCell id="1" parent="0" />
        <mxCell id="JCPrWBakVLXpnN9H-Ezp-8" style="edgeStyle=orthogonalEdgeStyle;rounded=0;orthogonalLoop=1;jettySize=auto;html=1;exitX=1;exitY=0.5;exitDx=0;exitDy=0;entryX=0;entryY=0.5;entryDx=0;entryDy=0;" edge="1" parent="1" source="JCPrWBakVLXpnN9H-Ezp-1" target="JCPrWBakVLXpnN9H-Ezp-7">
          <mxGeometry relative="1" as="geometry" />
        </mxCell>
        <mxCell id="JCPrWBakVLXpnN9H-Ezp-1" value="" style="rounded=1;whiteSpace=wrap;html=1;" vertex="1" parent="1">
          <mxGeometry x="480" y="200" width="290" height="190" as="geometry" />
        </mxCell>
        <mxCell id="JCPrWBakVLXpnN9H-Ezp-5" style="edgeStyle=orthogonalEdgeStyle;rounded=0;orthogonalLoop=1;jettySize=auto;html=1;exitX=1;exitY=0.5;exitDx=0;exitDy=0;" edge="1" parent="1" source="JCPrWBakVLXpnN9H-Ezp-2" target="JCPrWBakVLXpnN9H-Ezp-4">
          <mxGeometry relative="1" as="geometry" />
        </mxCell>
        <mxCell id="JCPrWBakVLXpnN9H-Ezp-2" value="Container" style="swimlane;" vertex="1" parent="1">
          <mxGeometry x="510" y="250" width="100" height="90" as="geometry" />
        </mxCell>
        <mxCell id="JCPrWBakVLXpnN9H-Ezp-3" value="nginx" style="text;html=1;align=center;verticalAlign=middle;resizable=0;points=[];autosize=1;strokeColor=none;fillColor=none;" vertex="1" parent="JCPrWBakVLXpnN9H-Ezp-2">
          <mxGeometry x="25" y="40" width="50" height="30" as="geometry" />
        </mxCell>
        <mxCell id="JCPrWBakVLXpnN9H-Ezp-4" value="certbot" style="shape=datastore;whiteSpace=wrap;html=1;" vertex="1" parent="1">
          <mxGeometry x="670" y="265" width="60" height="60" as="geometry" />
        </mxCell>
        <UserObject label="Podman compose" placeholders="1" name="Variable" id="JCPrWBakVLXpnN9H-Ezp-6">
          <mxCell style="text;html=1;strokeColor=none;fillColor=none;align=center;verticalAlign=middle;whiteSpace=wrap;overflow=hidden;" vertex="1" parent="1">
            <mxGeometry x="580" y="405" width="100" height="25" as="geometry" />
          </mxCell>
        </UserObject>
        <mxCell id="JCPrWBakVLXpnN9H-Ezp-7" value="Web Page" style="swimlane;whiteSpace=wrap;html=1;" vertex="1" parent="1">
          <mxGeometry x="820" y="240" width="130" height="110" as="geometry" />
        </mxCell>
      </root>
    </mxGraphModel>
  </diagram>
</mxfile>
